<svg width="128" height="128" viewBox="0 0 128 128" fill="none" xmlns="http://www.w3.org/2000/svg">
<g clip-path="url(#clip0_33_2)">
<circle cx="64" cy="64" r="64" fill="#008F76"/>
<circle cx="64.4901" cy="64.0526" r="55.0526" fill="white"/>
<circle cx="64.4904" cy="64.0526" r="43.5178" fill="#008F76"/>
<path d="M15.7293 82.2576L29.3513 61.8095H2.10733L15.7293 82.2576Z" fill="#008F76"/>
<path d="M15.7293 77.1604L29.3513 55.9258H2.10733L15.7293 77.1604Z" fill="white"/>
<ellipse cx="63.9723" cy="88.4211" rx="22.9723" ry="6.27409" fill="white"/>
<rect x="41" y="39.2741" width="45.9446" height="49.147" fill="white"/>
<path d="M63.9723 79.51C70.41 79.51 76.2923 78.799 80.6114 77.6194C82.7603 77.0325 84.6077 76.3069 85.9531 75.4382C87.2318 74.6125 88.4446 73.3955 88.4446 71.7359C88.4446 70.0763 87.2318 68.8593 85.9531 68.0336C84.6077 67.1649 82.7603 66.4393 80.6114 65.8525C76.2923 64.6728 70.41 63.9618 63.9723 63.9618C57.5346 63.9618 51.6524 64.6728 47.3332 65.8525C45.1844 66.4393 43.337 67.1649 41.9916 68.0336C40.7129 68.8593 39.5 70.0763 39.5 71.7359C39.5 73.3955 40.7129 74.6125 41.9916 75.4382C43.337 76.3069 45.1844 77.0325 47.3332 77.6194C51.6524 78.799 57.5346 79.51 63.9723 79.51Z" fill="white" stroke="#008F76" stroke-width="3"/>
<rect x="41" y="57" width="46" height="15" fill="white"/>
<path d="M63.9723 62.7791C70.41 62.7791 76.2923 62.0681 80.6114 60.8885C82.7603 60.3016 84.6077 59.576 85.9531 58.7073C87.2318 57.8816 88.4446 56.6646 88.4446 55.005C88.4446 53.3454 87.2318 52.1284 85.9531 51.3027C84.6077 50.434 82.7603 49.7084 80.6114 49.1216C76.2923 47.9419 70.41 47.2309 63.9723 47.2309C57.5346 47.2309 51.6524 47.9419 47.3332 49.1216C45.1844 49.7084 43.337 50.434 41.9916 51.3027C40.7129 52.1284 39.5 53.3454 39.5 55.005C39.5 56.6646 40.7129 57.8816 41.9916 58.7073C43.337 59.576 45.1844 60.3016 47.3332 60.8885C51.6524 62.0681 57.5346 62.7791 63.9723 62.7791Z" fill="white" stroke="#008F76" stroke-width="3"/>
<rect x="41" y="42" width="46" height="13" fill="white"/>
<path d="M63.9723 47.0482C70.41 47.0482 76.2923 46.3372 80.6114 45.1575C82.7603 44.5707 84.6077 43.8451 85.9531 42.9764C87.2318 42.1507 88.4446 40.9337 88.4446 39.2741C88.4446 37.6145 87.2318 36.3975 85.9531 35.5718C84.6077 34.7031 82.7603 33.9775 80.6114 33.3906C76.2923 32.211 70.41 31.5 63.9723 31.5C57.5346 31.5 51.6524 32.211 47.3332 33.3906C45.1844 33.9775 43.337 34.7031 41.9916 35.5718C40.7129 36.3975 39.5 37.6145 39.5 39.2741C39.5 40.9337 40.7129 42.1507 41.9916 42.9764C43.337 43.8451 45.1844 44.5707 47.3332 45.1575C51.6524 46.3372 57.5346 47.0482 63.9723 47.0482Z" fill="white" stroke="#008F76" stroke-width="3"/>
</g>
<defs>
<clipPath id="clip0_33_2">
<rect width="128" height="128" fill="white"/>
</clipPath>
</defs>
</svg>
